<svg xmlns="http://www.w3.org/2000/svg" viewBox="0 0 512 320">
  <defs>
    <linearGradient id="body" x1="120" y1="72" x2="410" y2="274" gradientUnits="userSpaceOnUse">
      <stop offset="0" stop-color="#69d5ef"/>
      <stop offset="0.48" stop-color="#2b9ed0"/>
      <stop offset="1" stop-color="#11669b"/>
    </linearGradient>
    <linearGradient id="glass" x1="177" y1="84" x2="337" y2="157" gradientUnits="userSpaceOnUse">
      <stop offset="0" stop-color="#103757"/>
      <stop offset="1" stop-color="#061421"/>
    </linearGradient>
    <linearGradient id="chrome" x1="120" y1="232" x2="392" y2="269" gradientUnits="userSpaceOnUse">
      <stop offset="0" stop-color="#11151b"/>
      <stop offset="0.5" stop-color="#323946"/>
      <stop offset="1" stop-color="#090b10"/>
    </linearGradient>
    <filter id="softShadow" x="-20%" y="-20%" width="140%" height="150%">
      <feDropShadow dx="0" dy="11" stdDeviation="9" flood-color="#000" flood-opacity=".38"/>
    </filter>
  </defs>
  <ellipse cx="256" cy="283" rx="178" ry="24" fill="#02050a" opacity=".32"/>
  <g filter="url(#softShadow)">
    <path d="M92 175c8-50 39-77 82-85 21-34 47-50 82-50s61 16 82 50c43 8 74 35 82 85l16 77c3 17-10 32-27 32H103c-17 0-30-15-27-32l16-77Z" fill="#07101a" opacity=".62"/>
    <path d="M104 171c8-44 35-67 76-74 20-31 42-45 76-45s56 14 76 45c41 7 68 30 76 74l13 67c3 16-9 30-25 30H116c-16 0-28-14-25-30l13-67Z" fill="url(#body)" stroke="#07101a" stroke-width="8" stroke-linejoin="round"/>
    <path d="M151 169h210c21 0 38 17 38 38v42H113v-42c0-21 17-38 38-38Z" fill="#1778ad" opacity=".42"/>
    <path d="M181 97c17-28 38-41 75-41s58 13 75 41l14 47H167l14-47Z" fill="#07101a" stroke="#07101a" stroke-width="7" stroke-linejoin="round"/>
    <path d="M190 101c16-24 34-35 66-35s50 11 66 35l9 35H181l9-35Z" fill="url(#glass)"/>
    <path d="M207 76c12-7 27-11 49-11 27 0 44 8 58 24" fill="none" stroke="#9ee6ff" stroke-width="5" stroke-linecap="round" opacity=".35"/>
    <rect x="127" y="184" width="74" height="39" rx="10" fill="#f64d4e" stroke="#07101a" stroke-width="6"/>
    <rect x="311" y="184" width="74" height="39" rx="10" fill="#f64d4e" stroke="#07101a" stroke-width="6"/>
    <rect x="144" y="193" width="40" height="9" rx="4" fill="#ffb259" opacity=".8"/>
    <rect x="328" y="193" width="40" height="9" rx="4" fill="#ffb259" opacity=".8"/>
    <rect x="110" y="231" width="292" height="36" rx="16" fill="url(#chrome)" stroke="#07101a" stroke-width="7"/>
    <rect x="220" y="230" width="72" height="31" rx="7" fill="#f1df9f" stroke="#07101a" stroke-width="5"/>
    <path d="M223 119h66" stroke="#e8fbff" stroke-width="5" stroke-linecap="round" opacity=".20"/>
    <path d="M121 173c39-17 231-18 270 0" fill="none" stroke="#d8f7ff" stroke-width="6" stroke-linecap="round" opacity=".24"/>
    <g fill="#090b0e" stroke="#1f2630" stroke-width="6">
      <circle cx="145" cy="267" r="25"/>
      <circle cx="367" cy="267" r="25"/>
    </g>
    <g fill="#d7d9d8" opacity=".68">
      <circle cx="145" cy="267" r="10"/>
      <circle cx="367" cy="267" r="10"/>
    </g>
  </g>
</svg>
