<svg xmlns="http://www.w3.org/2000/svg" viewBox="0 0 620 430">
  <defs>
    <linearGradient id="trailer" x1="150" y1="41" x2="470" y2="286" gradientUnits="userSpaceOnUse">
      <stop offset="0" stop-color="#e7f2f6"/>
      <stop offset=".48" stop-color="#8ea7b4"/>
      <stop offset="1" stop-color="#495b68"/>
    </linearGradient>
    <linearGradient id="cab" x1="180" y1="250" x2="440" y2="380" gradientUnits="userSpaceOnUse">
      <stop offset="0" stop-color="#84d7ef"/>
      <stop offset=".52" stop-color="#2b89be"/>
      <stop offset="1" stop-color="#125074"/>
    </linearGradient>
    <linearGradient id="glass" x1="220" y1="272" x2="405" y2="333" gradientUnits="userSpaceOnUse">
      <stop offset="0" stop-color="#103a5d"/>
      <stop offset="1" stop-color="#071520"/>
    </linearGradient>
    <filter id="shadow" x="-20%" y="-20%" width="140%" height="150%">
      <feDropShadow dx="0" dy="13" stdDeviation="11" flood-color="#000" flood-opacity=".4"/>
    </filter>
  </defs>
  <ellipse cx="310" cy="386" rx="218" ry="29" fill="#02050a" opacity=".32"/>
  <g filter="url(#shadow)">
    <rect x="117" y="36" width="386" height="260" rx="26" fill="#07101a" opacity=".66"/>
    <rect x="130" y="48" width="360" height="244" rx="21" fill="url(#trailer)" stroke="#07101a" stroke-width="9"/>
    <path d="M150 91h320M150 143h320M150 195h320" stroke="#f9fdff" stroke-width="7" stroke-linecap="round" opacity=".22"/>
    <path d="M150 260h320" stroke="#1b2a34" stroke-width="8" stroke-linecap="round" opacity=".22"/>
    <path d="M184 258h252c31 0 57 25 57 57v30c0 21-17 38-38 38H165c-21 0-38-17-38-38v-30c0-32 26-57 57-57Z" fill="url(#cab)" stroke="#07101a" stroke-width="9" stroke-linejoin="round"/>
    <path d="M216 267h188c24 0 43 19 43 43v16H173v-16c0-24 19-43 43-43Z" fill="#07101a" stroke="#07101a" stroke-width="6"/>
    <rect x="199" y="279" width="91" height="43" rx="9" fill="url(#glass)"/>
    <rect x="330" y="279" width="91" height="43" rx="9" fill="url(#glass)"/>
    <path d="M212 287c18-9 51-12 75-6M342 287c18-9 51-12 75-6" stroke="#b5edff" stroke-width="5" stroke-linecap="round" opacity=".32"/>
    <rect x="150" y="325" width="83" height="41" rx="11" fill="#f04b47" stroke="#07101a" stroke-width="6"/>
    <rect x="387" y="325" width="83" height="41" rx="11" fill="#f04b47" stroke="#07101a" stroke-width="6"/>
    <rect x="171" y="334" width="40" height="10" rx="5" fill="#ffc06c" opacity=".8"/>
    <rect x="409" y="334" width="40" height="10" rx="5" fill="#ffc06c" opacity=".8"/>
    <rect x="137" y="361" width="346" height="37" rx="17" fill="#161b23" stroke="#07101a" stroke-width="7"/>
    <rect x="274" y="356" width="72" height="31" rx="7" fill="#efe0a4" stroke="#07101a" stroke-width="5"/>
    <g fill="#090b0e" stroke="#202832" stroke-width="6">
      <circle cx="184" cy="394" r="25"/>
      <circle cx="244" cy="394" r="25"/>
      <circle cx="376" cy="394" r="25"/>
      <circle cx="436" cy="394" r="25"/>
    </g>
    <g fill="#d8dad6" opacity=".68">
      <circle cx="184" cy="394" r="9"/>
      <circle cx="244" cy="394" r="9"/>
      <circle cx="376" cy="394" r="9"/>
      <circle cx="436" cy="394" r="9"/>
    </g>
  </g>
</svg>
