<svg xmlns="http://www.w3.org/2000/svg" viewBox="0 0 560 330">
  <defs>
    <linearGradient id="paint" x1="122" y1="66" x2="420" y2="282" gradientUnits="userSpaceOnUse">
      <stop offset="0" stop-color="#f8c25a"/>
      <stop offset=".45" stop-color="#e77731"/>
      <stop offset="1" stop-color="#8f3a22"/>
    </linearGradient>
    <linearGradient id="bed" x1="113" y1="155" x2="232" y2="244" gradientUnits="userSpaceOnUse">
      <stop offset="0" stop-color="#7b3322"/>
      <stop offset="1" stop-color="#341711"/>
    </linearGradient>
    <linearGradient id="glass" x1="224" y1="77" x2="340" y2="151" gradientUnits="userSpaceOnUse">
      <stop offset="0" stop-color="#123d5f"/>
      <stop offset="1" stop-color="#071521"/>
    </linearGradient>
    <filter id="shadow" x="-20%" y="-20%" width="140%" height="150%">
      <feDropShadow dx="0" dy="12" stdDeviation="10" flood-color="#000" flood-opacity=".38"/>
    </filter>
  </defs>
  <ellipse cx="280" cy="292" rx="190" ry="25" fill="#02050a" opacity=".32"/>
  <g filter="url(#shadow)">
    <path d="M83 176c8-39 32-58 68-63l55-7c17-42 41-59 74-59 34 0 59 17 76 59l54 7c37 5 61 24 69 63l16 74c4 20-11 38-32 38H97c-21 0-36-18-32-38l18-74Z" fill="#07101a" opacity=".62"/>
    <path d="M96 171c8-34 29-49 64-54l53-7c16-38 36-53 67-53 30 0 51 15 67 53l53 7c35 5 56 20 64 54l14 64c4 18-10 34-29 34H111c-19 0-33-16-29-34l14-64Z" fill="url(#paint)" stroke="#07101a" stroke-width="8" stroke-linejoin="round"/>
    <path d="M112 168h143v80H96l11-61c1-7 3-13 5-19Z" fill="url(#bed)" stroke="#07101a" stroke-width="7" stroke-linejoin="round"/>
    <path d="M223 106c14-30 29-41 57-41s44 11 57 41l11 45H212l11-45Z" fill="#07101a" stroke="#07101a" stroke-width="7" stroke-linejoin="round"/>
    <path d="M232 108c12-23 25-32 48-32s36 9 48 32l7 34H225l7-34Z" fill="url(#glass)"/>
    <path d="M244 82c10-6 21-8 36-8 21 0 34 6 45 20" fill="none" stroke="#b4edff" stroke-width="5" stroke-linecap="round" opacity=".34"/>
    <path d="M99 213h363v36c0 11-9 20-20 20H119c-11 0-20-9-20-20v-36Z" fill="#c25628" opacity=".5"/>
    <rect x="123" y="186" width="74" height="39" rx="10" fill="#f24845" stroke="#07101a" stroke-width="6"/>
    <rect x="363" y="186" width="74" height="39" rx="10" fill="#f24845" stroke="#07101a" stroke-width="6"/>
    <rect x="142" y="196" width="36" height="9" rx="4" fill="#ffbb5f" opacity=".8"/>
    <rect x="382" y="196" width="36" height="9" rx="4" fill="#ffbb5f" opacity=".8"/>
    <rect x="100" y="242" width="360" height="35" rx="16" fill="#161b23" stroke="#07101a" stroke-width="7"/>
    <rect x="244" y="238" width="72" height="32" rx="7" fill="#efe0a4" stroke="#07101a" stroke-width="5"/>
    <path d="M124 165c46-15 269-15 313 0" fill="none" stroke="#fff2c8" stroke-width="6" stroke-linecap="round" opacity=".24"/>
    <path d="M125 153h103" stroke="#e8a457" stroke-width="6" stroke-linecap="round" opacity=".35"/>
    <g fill="#090b0e" stroke="#202832" stroke-width="6">
      <circle cx="149" cy="273" r="25"/>
      <circle cx="411" cy="273" r="25"/>
    </g>
    <g fill="#d8dad6" opacity=".68">
      <circle cx="149" cy="273" r="10"/>
      <circle cx="411" cy="273" r="10"/>
    </g>
  </g>
</svg>
